<svg xmlns="http://www.w3.org/2000/svg" width="200" height="50" viewBox="0 0 200 50" version="1.1"><path d="M 176.600 10.099 C 174.971 12.857, 174.935 13.364, 176.273 14.702 C 178.256 16.685, 182 15.508, 182 12.901 C 182 11.821, 181.314 10.674, 180.474 10.352 C 179.298 9.900, 179.212 9.450, 180.097 8.383 C 180.982 7.317, 180.922 7, 179.838 7 C 179.064 7, 177.607 8.395, 176.600 10.099 M 177.597 11.844 C 177.251 12.404, 177.455 13.163, 178.050 13.531 C 179.588 14.481, 180.580 13.180, 179.296 11.896 C 178.578 11.178, 178.019 11.161, 177.597 11.844" stroke="none" fill="#f1edf9" fill-rule="evenodd"/><path d="M 171.400 4.400 C 167.317 8.483, 166.985 12.198, 170.268 17.070 C 176.181 25.844, 189 21.880, 189 11.277 C 189 1.496, 178.433 -2.633, 171.400 4.400 M 176.600 10.099 C 174.971 12.857, 174.935 13.364, 176.273 14.702 C 178.256 16.685, 182 15.508, 182 12.901 C 182 11.821, 181.314 10.674, 180.474 10.352 C 179.298 9.900, 179.212 9.450, 180.097 8.383 C 180.982 7.317, 180.922 7, 179.838 7 C 179.064 7, 177.607 8.395, 176.600 10.099 M 177.597 11.844 C 177.251 12.404, 177.455 13.163, 178.050 13.531 C 179.588 14.481, 180.580 13.180, 179.296 11.896 C 178.578 11.178, 178.019 11.161, 177.597 11.844 M 18 18.500 C 18 20.500, 18.500 21, 20.500 21 C 22.500 21, 23 20.500, 23 18.500 C 23 16.500, 22.500 16, 20.500 16 C 18.500 16, 18 16.500, 18 18.500 M 77 18.500 C 77 20.500, 77.500 21, 79.500 21 C 81.500 21, 82 20.500, 82 18.500 C 82 16.500, 81.500 16, 79.500 16 C 77.500 16, 77 16.500, 77 18.500 M 18.214 32.176 C 18.479 41.738, 18.648 42.500, 20.500 42.500 C 22.367 42.500, 22.500 41.833, 22.500 32.500 C 22.500 22.844, 22.421 22.489, 20.214 22.176 C 17.944 21.854, 17.930 21.924, 18.214 32.176 M 28.672 24.043 C 24.103 27.638, 23.879 35.946, 28.242 40.011 C 31.256 42.819, 34.457 43.467, 38.019 41.992 C 40.196 41.090, 41 40.087, 41 38.272 C 41 36.291, 40.645 35.935, 39.250 36.522 C 35.044 38.289, 32.670 38.270, 31.344 36.455 C 28.192 32.145, 31.037 25.153, 35.399 26.488 C 36.555 26.841, 38.288 27.379, 39.250 27.682 C 40.598 28.107, 41 27.657, 41 25.724 C 41 24.343, 40.288 22.941, 39.418 22.607 C 36.226 21.382, 31.202 22.053, 28.672 24.043 M 45.299 23.503 C 44.119 24.330, 42.649 26.534, 42.032 28.402 C 38.603 38.794, 49.807 47.772, 56.411 39.923 C 60.026 35.628, 60.092 28.001, 56.545 24.455 C 53.699 21.608, 48.619 21.178, 45.299 23.503 M 62.655 23.829 C 60.532 26.175, 60.530 30.365, 62.652 32.126 C 63.561 32.880, 65.698 33.948, 67.402 34.499 C 69.106 35.049, 70.376 35.950, 70.225 36.500 C 69.907 37.656, 65.315 37.693, 62.750 36.559 C 61.373 35.951, 61 36.265, 61 38.033 C 61 43.016, 68.959 44.801, 72.826 40.686 C 76.984 36.259, 75.241 31.649, 68.598 29.501 C 66.894 28.951, 65.725 28.050, 66 27.500 C 66.578 26.345, 70.693 26.311, 73.250 27.441 C 74.656 28.062, 75 27.723, 75 25.714 C 75 22.854, 73.408 22, 68.073 22 C 65.697 22, 63.700 22.674, 62.655 23.829 M 77.667 22.667 C 76.675 23.658, 76.889 40.277, 77.914 41.896 C 78.400 42.663, 79.519 43.015, 80.399 42.677 C 81.720 42.170, 82 40.307, 82 32.031 C 82 22.971, 81.823 22, 80.167 22 C 79.158 22, 78.033 22.300, 77.667 22.667 M 84 22.570 C 84 22.883, 85.398 25.172, 87.107 27.656 L 90.215 32.173 87.047 36.584 C 85.305 39.010, 84.158 41.446, 84.499 41.998 C 85.706 43.952, 87.960 42.953, 90.382 39.389 L 92.836 35.777 95.168 39.376 C 97.407 42.832, 100.240 44.039, 101.463 42.060 C 101.782 41.543, 100.630 39.115, 98.902 36.664 L 95.761 32.207 98.881 27.674 C 100.596 25.180, 102 22.883, 102 22.570 C 102 22.256, 100.900 22, 99.557 22 C 97.902 22, 96.541 22.969, 95.341 25 C 94.366 26.650, 93.328 27.997, 93.034 27.994 C 92.740 27.990, 91.733 26.640, 90.797 24.994 C 89.604 22.898, 88.329 22, 86.547 22 C 85.146 22, 84 22.256, 84 22.570 M 116.672 24.043 C 112.103 27.638, 111.879 35.946, 116.242 40.011 C 119.256 42.819, 122.457 43.467, 126.019 41.992 C 128.196 41.090, 129 40.087, 129 38.272 C 129 36.291, 128.645 35.935, 127.250 36.522 C 123.044 38.289, 120.670 38.270, 119.344 36.455 C 116.192 32.145, 119.037 25.153, 123.399 26.488 C 124.555 26.841, 126.287 27.379, 127.250 27.682 C 128.598 28.107, 129 27.657, 129 25.724 C 129 24.343, 128.288 22.941, 127.418 22.607 C 124.226 21.382, 119.202 22.053, 116.672 24.043 M 133.299 23.503 C 132.119 24.330, 130.649 26.534, 130.032 28.402 C 126.603 38.794, 137.807 47.772, 144.411 39.923 C 148.026 35.628, 148.092 28.001, 144.545 24.455 C 141.699 21.608, 136.619 21.178, 133.299 23.503 M 150 32.073 C 150 42.083, 150.793 44.247, 153.606 41.912 C 154.728 40.980, 155.064 38.969, 154.892 34.211 C 154.701 28.938, 154.979 27.592, 156.425 26.782 C 159.143 25.261, 159.877 26.857, 160.201 35.001 C 160.469 41.734, 160.704 42.500, 162.500 42.500 C 164.301 42.500, 164.529 41.737, 164.790 34.841 C 165.011 29.036, 165.456 27.039, 166.631 26.588 C 169.342 25.548, 170 26.951, 170.015 33.809 C 170.032 41.169, 170.964 43.611, 173.399 42.677 C 175.896 41.719, 175.708 25.950, 173.171 23.655 C 171.053 21.738, 166.921 21.479, 165.242 23.158 C 164.410 23.990, 163.719 24.012, 162.786 23.238 C 162.072 22.645, 158.903 22.183, 155.744 22.211 L 150 22.263 150 32.073 M 48.329 26.775 C 46.491 27.945, 45.787 32.309, 46.945 35.355 C 47.799 37.603, 48.526 38.072, 50.750 37.816 C 53.219 37.532, 53.532 37.058, 53.811 33.176 C 54.227 27.391, 51.806 24.564, 48.329 26.775 M 136.329 26.775 C 134.491 27.945, 133.787 32.309, 134.945 35.355 C 135.799 37.603, 136.526 38.072, 138.750 37.816 C 141.219 37.532, 141.532 37.058, 141.811 33.176 C 142.227 27.391, 139.806 24.564, 136.329 26.775 M 104.187 39.250 C 104.449 41.966, 104.910 42.500, 107 42.500 C 109.090 42.500, 109.551 41.966, 109.813 39.250 C 110.107 36.209, 109.925 36, 107 36 C 104.075 36, 103.893 36.209, 104.187 39.250" stroke="none" fill="#5b33d3" fill-rule="evenodd"/></svg>